<svg width="21" height="20" viewBox="0 0 21 20" fill="none" xmlns="http://www.w3.org/2000/svg">
<path d="M3.9375 17.5C3.35734 17.5 2.80094 17.2695 2.3907 16.8593C1.98047 16.4491 1.75 15.8927 1.75 15.3125V12.1875C1.75 11.9389 1.84877 11.7004 2.02459 11.5246C2.2004 11.3488 2.43886 11.25 2.6875 11.25C2.93614 11.25 3.1746 11.3488 3.35041 11.5246C3.52623 11.7004 3.625 11.9389 3.625 12.1875V15.3125C3.625 15.485 3.765 15.625 3.9375 15.625H17.0625C17.1454 15.625 17.2249 15.5921 17.2835 15.5335C17.3421 15.4749 17.375 15.3954 17.375 15.3125V12.1875C17.375 11.9389 17.4738 11.7004 17.6496 11.5246C17.8254 11.3488 18.0639 11.25 18.3125 11.25C18.5611 11.25 18.7996 11.3488 18.9754 11.5246C19.1512 11.7004 19.25 11.9389 19.25 12.1875V15.3125C19.25 15.8927 19.0195 16.4491 18.6093 16.8593C18.1991 17.2695 17.6427 17.5 17.0625 17.5H3.9375Z" fill="#FEBD01"/>
<path d="M9.56253 9.61125V2.5C9.56253 2.25136 9.6613 2.0129 9.83711 1.83709C10.0129 1.66127 10.2514 1.5625 10.5 1.5625C10.7487 1.5625 10.9871 1.66127 11.1629 1.83709C11.3388 2.0129 11.4375 2.25136 11.4375 2.5V9.61125L13.9 7.15C13.987 7.063 14.0903 6.99399 14.204 6.9469C14.3177 6.89982 14.4395 6.87558 14.5625 6.87558C14.6856 6.87558 14.8074 6.89982 14.9211 6.9469C15.0347 6.99399 15.138 7.063 15.225 7.15C15.312 7.237 15.381 7.34029 15.4281 7.45396C15.4752 7.56763 15.4994 7.68946 15.4994 7.8125C15.4994 7.93554 15.4752 8.05737 15.4281 8.17104C15.381 8.28471 15.312 8.388 15.225 8.475L11.1625 12.5375C11.0756 12.6246 10.9723 12.6937 10.8586 12.7408C10.7449 12.7879 10.6231 12.8122 10.5 12.8122C10.377 12.8122 10.2551 12.7879 10.1414 12.7408C10.0278 12.6937 9.92448 12.6246 9.83753 12.5375L5.77503 8.475C5.68803 8.388 5.61901 8.28471 5.57193 8.17104C5.52484 8.05737 5.50061 7.93554 5.50061 7.8125C5.50061 7.68946 5.52484 7.56763 5.57193 7.45396C5.61901 7.34029 5.68803 7.237 5.77503 7.15C5.86203 7.063 5.96531 6.99399 6.07898 6.9469C6.19266 6.89982 6.31449 6.87558 6.43753 6.87558C6.56056 6.87558 6.6824 6.89982 6.79607 6.9469C6.90974 6.99399 7.01303 7.063 7.10003 7.15L9.56253 9.61125Z" fill="#FEBD01"/>
</svg>
