<svg width="17" height="16" viewBox="0 0 17 16" fill="none" xmlns="http://www.w3.org/2000/svg">
<path d="M3.25 14C2.78587 14 2.34075 13.8156 2.01256 13.4874C1.68437 13.1592 1.5 12.7141 1.5 12.25V9.75C1.5 9.55109 1.57902 9.36032 1.71967 9.21967C1.86032 9.07902 2.05109 9 2.25 9C2.44891 9 2.63968 9.07902 2.78033 9.21967C2.92098 9.36032 3 9.55109 3 9.75V12.25C3 12.388 3.112 12.5 3.25 12.5H13.75C13.8163 12.5 13.8799 12.4737 13.9268 12.4268C13.9737 12.3799 14 12.3163 14 12.25V9.75C14 9.55109 14.079 9.36032 14.2197 9.21967C14.3603 9.07902 14.5511 9 14.75 9C14.9489 9 15.1397 9.07902 15.2803 9.21967C15.421 9.36032 15.5 9.55109 15.5 9.75V12.25C15.5 12.7141 15.3156 13.1592 14.9874 13.4874C14.6592 13.8156 14.2141 14 13.75 14H3.25Z" fill="#FF8367"/>
<path d="M7.75 7.689V2C7.75 1.80109 7.82902 1.61032 7.96967 1.46967C8.11032 1.32902 8.30109 1.25 8.5 1.25C8.69891 1.25 8.88968 1.32902 9.03033 1.46967C9.17098 1.61032 9.25 1.80109 9.25 2V7.689L11.22 5.72C11.2896 5.6504 11.3722 5.59519 11.4632 5.55752C11.5541 5.51985 11.6516 5.50047 11.75 5.50047C11.8484 5.50047 11.9459 5.51985 12.0368 5.55752C12.1278 5.59519 12.2104 5.6504 12.28 5.72C12.3496 5.7896 12.4048 5.87223 12.4425 5.96317C12.4801 6.0541 12.4995 6.15157 12.4995 6.25C12.4995 6.34843 12.4801 6.4459 12.4425 6.53683C12.4048 6.62777 12.3496 6.7104 12.28 6.78L9.03 10.03C8.96043 10.0997 8.87782 10.1549 8.78688 10.1926C8.69593 10.2303 8.59845 10.2498 8.5 10.2498C8.40155 10.2498 8.30406 10.2303 8.21312 10.1926C8.12218 10.1549 8.03956 10.0997 7.97 10.03L4.72 6.78C4.6504 6.7104 4.59519 6.62777 4.55752 6.53683C4.51985 6.4459 4.50047 6.34843 4.50047 6.25C4.50047 6.15157 4.51985 6.0541 4.55752 5.96317C4.59519 5.87223 4.6504 5.7896 4.72 5.72C4.7896 5.6504 4.87223 5.59519 4.96316 5.55752C5.0541 5.51985 5.15157 5.50047 5.25 5.50047C5.34843 5.50047 5.44589 5.51985 5.53683 5.55752C5.62777 5.59519 5.7104 5.6504 5.78 5.72L7.75 7.689Z" fill="#FF8367"/>
</svg>
