<svg width="24" height="24" viewBox="0 0 24 24" fill="none" xmlns="http://www.w3.org/2000/svg">
<path d="M14.7598 4.97268C20.1298 8.71139 24.1498 14.6872 23.6698 18.3033C23.1898 21.9195 18.4798 21.7969 13.0798 18.0275C11.8198 17.1388 10.6498 16.1582 9.56976 15.0856C10.2298 15.6985 10.9198 16.2807 11.6398 16.8324C16.2298 20.1727 20.2798 20.3872 20.7598 17.292C21.2098 14.1969 17.9098 9.01784 13.3798 5.67752C8.84976 2.3372 4.76976 2.15333 4.28976 5.24849C4.19976 5.8001 4.25976 6.38236 4.37976 7.02591C4.16976 6.19849 4.07976 5.40171 4.16976 4.72752C4.64976 1.11139 9.38976 1.20333 14.7598 4.97268Z" fill="white" fill-opacity="0.7"/>
<path d="M9.09009 4.97268C3.69009 8.71139 -0.29991 14.6872 0.15009 18.3033C0.600089 21.9195 5.34009 21.7969 10.7401 18.0275C12.0001 17.1388 13.1701 16.1582 14.2501 15.0856C13.5901 15.6985 12.9001 16.2807 12.1501 16.8324C7.62009 20.1727 3.57009 20.3872 3.09009 17.292C2.64009 14.2275 5.94009 9.01784 10.5001 5.67752C15.0601 2.3372 19.1101 2.15333 19.5601 5.24849C19.6501 5.8001 19.5901 6.38236 19.4701 7.02591C19.6801 6.19849 19.7701 5.40171 19.6801 4.72752C19.2001 1.11139 14.4601 1.20333 9.09009 4.97268Z" fill="white" fill-opacity="0.7"/>
<path d="M11.911 7.02637C13.771 7.02637 15.271 8.55863 15.271 10.4586C15.271 12.3586 13.771 13.8909 11.911 13.8909C10.051 13.8909 8.55103 12.3586 8.55103 10.4586C8.55103 8.55863 10.081 7.02637 11.911 7.02637Z" fill="white" fill-opacity="0.7"/>
</svg>
